<svg width="113" height="29" viewBox="0 0 113 29" fill="none" xmlns="http://www.w3.org/2000/svg">
<path d="M1.09 23C0.87 23 0.69 22.94 0.55 22.82C0.41 22.68 0.34 22.5 0.34 22.28V2.75C0.34 2.53 0.41 2.35 0.55 2.21C0.69 2.07 0.87 2 1.09 2H3.46C3.88 2 4.18 2.19 4.36 2.57L10.15 13.37L16 2.57C16.2 2.19 16.5 2 16.9 2H19.24C19.46 2 19.64 2.07 19.78 2.21C19.92 2.35 19.99 2.53 19.99 2.75V22.28C19.99 22.5 19.92 22.68 19.78 22.82C19.64 22.94 19.46 23 19.24 23H16.72C16.52 23 16.35 22.93 16.21 22.79C16.07 22.65 16 22.48 16 22.28V9.29L11.8 17.3C11.54 17.74 11.2 17.96 10.78 17.96H9.55C9.13 17.96 8.79 17.74 8.53 17.3L4.33 9.29V22.28C4.33 22.48 4.26 22.65 4.12 22.79C4 22.93 3.83 23 3.61 23H1.09ZM31.0164 23.3C28.7964 23.3 27.0264 22.66 25.7064 21.38C24.4064 20.08 23.7164 18.26 23.6364 15.92L23.6064 15.17L23.6364 14.42C23.7364 12.14 24.4364 10.35 25.7364 9.05C27.0564 7.75 28.8164 7.1 31.0164 7.1C33.3764 7.1 35.1964 7.82 36.4764 9.26C37.7764 10.7 38.4264 12.62 38.4264 15.02V15.65C38.4264 15.85 38.3564 16.02 38.2164 16.16C38.0764 16.3 37.8964 16.37 37.6764 16.37H27.7164V16.61C27.7564 17.71 28.0564 18.64 28.6164 19.4C29.1964 20.14 29.9864 20.51 30.9864 20.51C32.1664 20.51 33.1164 20.05 33.8364 19.13C34.0164 18.91 34.1564 18.77 34.2564 18.71C34.3764 18.65 34.5464 18.62 34.7664 18.62H37.3464C37.5264 18.62 37.6764 18.68 37.7964 18.8C37.9364 18.9 38.0064 19.03 38.0064 19.19C38.0064 19.67 37.7164 20.24 37.1364 20.9C36.5764 21.54 35.7664 22.1 34.7064 22.58C33.6464 23.06 32.4164 23.3 31.0164 23.3ZM34.3464 13.85V13.76C34.3464 12.58 34.0464 11.63 33.4464 10.91C32.8664 10.19 32.0564 9.83 31.0164 9.83C29.9764 9.83 29.1664 10.19 28.5864 10.91C28.0064 11.63 27.7164 12.58 27.7164 13.76V13.85H34.3464ZM42.3309 23C42.1309 23 41.9609 22.93 41.8209 22.79C41.6809 22.65 41.6109 22.48 41.6109 22.28V8.12C41.6109 7.92 41.6809 7.75 41.8209 7.61C41.9609 7.47 42.1309 7.4 42.3309 7.4H44.6709C44.8709 7.4 45.0409 7.47 45.1809 7.61C45.3209 7.75 45.3909 7.92 45.3909 8.12V9.14C46.4309 7.78 47.8809 7.1 49.7409 7.1C51.9609 7.1 53.5109 7.99 54.3909 9.77C54.8709 8.97 55.5509 8.33 56.4309 7.85C57.3109 7.35 58.2609 7.1 59.2809 7.1C60.9209 7.1 62.2609 7.66 63.3009 8.78C64.3409 9.9 64.8609 11.53 64.8609 13.67V22.28C64.8609 22.48 64.7909 22.65 64.6509 22.79C64.5309 22.93 64.3609 23 64.1409 23H61.6809C61.4809 23 61.3109 22.93 61.1709 22.79C61.0309 22.65 60.9609 22.48 60.9609 22.28V13.91C60.9609 12.65 60.6909 11.74 60.1509 11.18C59.6309 10.6 58.9309 10.31 58.0509 10.31C57.2709 10.31 56.6009 10.6 56.0409 11.18C55.5009 11.76 55.2309 12.67 55.2309 13.91V22.28C55.2309 22.48 55.1609 22.65 55.0209 22.79C54.8809 22.93 54.7109 23 54.5109 23H52.0509C51.8509 23 51.6809 22.93 51.5409 22.79C51.4009 22.65 51.3309 22.48 51.3309 22.28V13.91C51.3309 12.65 51.0509 11.74 50.4909 11.18C49.9509 10.6 49.2609 10.31 48.4209 10.31C47.6209 10.31 46.9409 10.6 46.3809 11.18C45.8409 11.76 45.5709 12.67 45.5709 13.91V22.28C45.5709 22.48 45.5009 22.65 45.3609 22.79C45.2209 22.93 45.0509 23 44.8509 23H42.3309ZM75.4012 23.3C73.1812 23.3 71.4112 22.66 70.0912 21.38C68.7912 20.08 68.1012 18.26 68.0212 15.92L67.9912 15.17L68.0212 14.42C68.1212 12.14 68.8212 10.35 70.1212 9.05C71.4412 7.75 73.2012 7.1 75.4012 7.1C77.7612 7.1 79.5812 7.82 80.8612 9.26C82.1612 10.7 82.8112 12.62 82.8112 15.02V15.65C82.8112 15.85 82.7412 16.02 82.6012 16.16C82.4612 16.3 82.2812 16.37 82.0612 16.37H72.1012V16.61C72.1412 17.71 72.4412 18.64 73.0012 19.4C73.5812 20.14 74.3712 20.51 75.3712 20.51C76.5512 20.51 77.5012 20.05 78.2212 19.13C78.4012 18.91 78.5412 18.77 78.6412 18.71C78.7612 18.65 78.9312 18.62 79.1512 18.62H81.7312C81.9112 18.62 82.0612 18.68 82.1812 18.8C82.3212 18.9 82.3912 19.03 82.3912 19.19C82.3912 19.67 82.1012 20.24 81.5212 20.9C80.9612 21.54 80.1512 22.1 79.0912 22.58C78.0312 23.06 76.8012 23.3 75.4012 23.3ZM78.7312 13.85V13.76C78.7312 12.58 78.4312 11.63 77.8312 10.91C77.2512 10.19 76.4412 9.83 75.4012 9.83C74.3612 9.83 73.5512 10.19 72.9712 10.91C72.3912 11.63 72.1012 12.58 72.1012 13.76V13.85H78.7312ZM88.2491 23C88.0491 23 87.8791 22.93 87.7391 22.79C87.5991 22.65 87.5291 22.48 87.5291 22.28V10.58H85.0991C84.8991 10.58 84.7291 10.51 84.5891 10.37C84.4491 10.21 84.3791 10.03 84.3791 9.83V8.12C84.3791 7.92 84.4491 7.75 84.5891 7.61C84.7291 7.47 84.8991 7.4 85.0991 7.4H87.5291V6.17C87.5291 2.59 89.4891 0.8 93.4091 0.8H95.4491C95.6691 0.8 95.8391 0.869999 95.9591 1.01C96.0991 1.13 96.1691 1.3 96.1691 1.52V3.23C96.1691 3.45 96.0991 3.63 95.9591 3.77C95.8191 3.91 95.6491 3.98 95.4491 3.98H93.5291C92.7491 3.98 92.1991 4.17 91.8791 4.55C91.5791 4.93 91.4291 5.52 91.4291 6.32V7.4H95.1491C95.3691 7.4 95.5391 7.47 95.6591 7.61C95.7991 7.73 95.8691 7.9 95.8691 8.12V9.83C95.8691 10.05 95.7991 10.23 95.6591 10.37C95.5191 10.51 95.3491 10.58 95.1491 10.58H91.4291V22.28C91.4291 22.48 91.3591 22.65 91.2191 22.79C91.0791 22.93 90.9091 23 90.7091 23H88.2491ZM101.091 28.7C100.931 28.7 100.791 28.64 100.671 28.52C100.551 28.4 100.491 28.26 100.491 28.1C100.491 27.92 100.531 27.76 100.611 27.62L102.951 22.07L97.191 8.48C97.111 8.3 97.071 8.16 97.071 8.06C97.091 7.88 97.161 7.73 97.281 7.61C97.401 7.47 97.551 7.4 97.731 7.4H100.161C100.541 7.4 100.811 7.59 100.971 7.97L104.961 17.78L109.071 7.97C109.231 7.59 109.501 7.4 109.881 7.4H112.281C112.441 7.4 112.581 7.46 112.701 7.58C112.841 7.7 112.911 7.84 112.911 8C112.911 8.14 112.871 8.3 112.791 8.48L104.301 28.13C104.121 28.51 103.841 28.7 103.461 28.7H101.091Z" fill="black"/>
</svg>
